<?xml version="1.0" encoding="UTF-8" standalone="no"?>
<!DOCTYPE svg PUBLIC "-//W3C//DTD SVG 1.1//EN" "http://www.w3.org/Graphics/SVG/1.1/DTD/svg11.dtd">
<svg version="1.1" xmlns="http://www.w3.org/2000/svg" xmlns:xlink="http://www.w3.org/1999/xlink" preserveAspectRatio="xMidYMid meet" viewBox="0 0 640 640" width="640" height="640"><defs><path d="M-2.67 -1.17L517.33 -1.17L517.33 518.83L-2.67 518.83L-2.67 -1.17Z" id="c13YpMgGHW"></path><path d="M130.23 118.36L140.23 118.36L140.23 399.36L130.23 399.36L130.23 118.36Z" id="a1ismgsIiq"></path><path d="M152.09 105.22C152.09 114.52 144.54 122.08 135.23 122.08C125.93 122.08 118.37 114.52 118.37 105.22C118.37 95.91 125.93 88.36 135.23 88.36C144.54 88.36 152.09 95.91 152.09 105.22Z" id="g2LqwL1io2"></path><path d="M198.44 158.83C207.97 158.83 215.7 166.56 215.7 176.09C215.7 183.8 215.7 189.68 215.7 197.39C215.7 206.92 207.97 214.65 198.44 214.65C171.2 214.65 106.71 214.65 79.46 214.65C69.93 214.65 62.21 206.92 62.21 197.39C62.21 189.68 62.21 183.8 62.21 176.09C62.21 166.56 69.93 158.83 79.46 158.83C106.71 158.83 171.2 158.83 198.44 158.83Z" id="asrEmzEc"></path><path d="M373.5 407.13L383.5 407.13L383.49 253.13L373.49 253.13L373.5 407.13Z" id="c3dlLatR9E"></path><path d="M370.23 253.86L370.23 263.86L135.23 263.86L135.23 253.86L370.23 253.86Z" id="cDWG14gzd"></path><path d="M152.67 258.83C152.67 268.14 145.12 275.69 135.81 275.69C126.51 275.69 118.95 268.14 118.95 258.83C118.95 249.53 126.51 241.97 135.81 241.97C145.12 241.97 152.67 249.53 152.67 258.83Z" id="lM63Fu0yI"></path><path d="M395.81 258.83C395.81 268.14 388.26 275.69 378.95 275.69C369.65 275.69 362.09 268.14 362.09 258.83C362.09 249.53 369.65 241.97 378.95 241.97C388.26 241.97 395.81 249.53 395.81 258.83Z" id="ctwcX8xTT"></path><path d="M152.09 412.45C152.09 421.76 144.54 429.31 135.23 429.31C125.93 429.31 118.37 421.76 118.37 412.45C118.37 403.14 125.93 395.59 135.23 395.59C144.54 395.59 152.09 403.14 152.09 412.45Z" id="ioDs4hztZ"></path><path d="M395.81 412.45C395.81 421.76 388.26 429.31 378.95 429.31C369.65 429.31 362.09 421.76 362.09 412.45C362.09 403.14 369.65 395.59 378.95 395.59C388.26 395.59 395.81 403.14 395.81 412.45Z" id="a3w9UmaHGN"></path><path d="M195.19 305.35C204.72 305.35 212.44 313.08 212.44 322.61C212.44 330.32 212.44 336.2 212.44 343.91C212.44 353.44 204.72 361.17 195.19 361.17C167.94 361.17 103.46 361.17 76.21 361.17C66.68 361.17 58.95 353.44 58.95 343.91C58.95 336.2 58.95 330.32 58.95 322.61C58.95 313.08 66.68 305.35 76.21 305.35C103.46 305.35 167.94 305.35 195.19 305.35Z" id="j9huKnWIv"></path><path d="M438.44 305.35C447.97 305.35 455.7 313.08 455.7 322.61C455.7 330.32 455.7 336.2 455.7 343.91C455.7 353.44 447.97 361.17 438.44 361.17C411.2 361.17 346.71 361.17 319.46 361.17C309.93 361.17 302.21 353.44 302.21 343.91C302.21 336.2 302.21 330.32 302.21 322.61C302.21 313.08 309.93 305.35 319.46 305.35C346.71 305.35 411.2 305.35 438.44 305.35Z" id="bZpbQKGsC"></path></defs><g><g><g><use xlink:href="#c13YpMgGHW" opacity="1" fill="#000000" fill-opacity="1"></use><g><use xlink:href="#c13YpMgGHW" opacity="1" fill-opacity="0" stroke="#000000" stroke-width="2" stroke-opacity="1"></use></g></g><g><g><use xlink:href="#a1ismgsIiq" opacity="1" fill="#ffffff" fill-opacity="1"></use><g><use xlink:href="#a1ismgsIiq" opacity="1" fill-opacity="0" stroke="#ffffff" stroke-width="1" stroke-opacity="1"></use></g></g><g><use xlink:href="#g2LqwL1io2" opacity="1" fill="#ffffff" fill-opacity="1"></use><g><use xlink:href="#g2LqwL1io2" opacity="1" fill-opacity="0" stroke="#ffffff" stroke-width="1" stroke-opacity="1"></use></g></g><g><use xlink:href="#asrEmzEc" opacity="1" fill="#000000" fill-opacity="1"></use><g><use xlink:href="#asrEmzEc" opacity="1" fill-opacity="0" stroke="#ffffff" stroke-width="10" stroke-opacity="1"></use></g></g><g><use xlink:href="#c3dlLatR9E" opacity="1" fill="#ffffff" fill-opacity="1"></use><g><use xlink:href="#c3dlLatR9E" opacity="1" fill-opacity="0" stroke="#ffffff" stroke-width="1" stroke-opacity="1"></use></g></g><g><use xlink:href="#cDWG14gzd" opacity="1" fill="#ffffff" fill-opacity="1"></use><g><use xlink:href="#cDWG14gzd" opacity="1" fill-opacity="0" stroke="#ffffff" stroke-width="1" stroke-opacity="1"></use></g></g><g><use xlink:href="#lM63Fu0yI" opacity="1" fill="#ffffff" fill-opacity="1"></use><g><use xlink:href="#lM63Fu0yI" opacity="1" fill-opacity="0" stroke="#ffffff" stroke-width="1" stroke-opacity="1"></use></g></g><g><use xlink:href="#ctwcX8xTT" opacity="1" fill="#ffffff" fill-opacity="1"></use><g><use xlink:href="#ctwcX8xTT" opacity="1" fill-opacity="0" stroke="#ffffff" stroke-width="1" stroke-opacity="1"></use></g></g><g><use xlink:href="#ioDs4hztZ" opacity="1" fill="#ffffff" fill-opacity="1"></use><g><use xlink:href="#ioDs4hztZ" opacity="1" fill-opacity="0" stroke="#ffffff" stroke-width="1" stroke-opacity="1"></use></g></g><g><use xlink:href="#a3w9UmaHGN" opacity="1" fill="#ffffff" fill-opacity="1"></use><g><use xlink:href="#a3w9UmaHGN" opacity="1" fill-opacity="0" stroke="#ffffff" stroke-width="1" stroke-opacity="1"></use></g></g><g><use xlink:href="#j9huKnWIv" opacity="1" fill="#000000" fill-opacity="1"></use><g><use xlink:href="#j9huKnWIv" opacity="1" fill-opacity="0" stroke="#ffffff" stroke-width="10" stroke-opacity="1"></use></g></g><g><use xlink:href="#bZpbQKGsC" opacity="1" fill="#000000" fill-opacity="1"></use><g><use xlink:href="#bZpbQKGsC" opacity="1" fill-opacity="0" stroke="#ffffff" stroke-width="10" stroke-opacity="1"></use></g></g></g></g></g></svg>