<?xml version="1.0" encoding="UTF-8" standalone="no"?>
<!DOCTYPE svg PUBLIC "-//W3C//DTD SVG 1.1//EN" "http://www.w3.org/Graphics/SVG/1.1/DTD/svg11.dtd">
<svg version="1.1" xmlns="http://www.w3.org/2000/svg" xmlns:xlink="http://www.w3.org/1999/xlink" preserveAspectRatio="xMidYMid meet" viewBox="0 0 640 640" width="640" height="640"><defs><path d="M-2.67 0L517.33 0L517.33 520L-2.67 520L-2.67 0Z" id="eqkBX8ePP"></path><path d="M131.28 119.52L141.28 119.52L141.28 400.52L131.28 400.52L131.28 119.52Z" id="b1i50r65pQ"></path><path d="M153.14 106.38C153.14 115.69 145.58 123.24 136.28 123.24C126.97 123.24 119.42 115.69 119.42 106.38C119.42 97.08 126.97 89.52 136.28 89.52C145.58 89.52 153.14 97.08 153.14 106.38Z" id="bppYmBZmm"></path><path d="M195.77 156.96C205.3 156.96 213.02 164.69 213.02 174.22C213.02 181.93 213.02 187.81 213.02 195.52C213.02 205.05 205.3 212.78 195.77 212.78C168.52 212.78 104.04 212.78 76.79 212.78C67.26 212.78 59.53 205.05 59.53 195.52C59.53 187.81 59.53 181.93 59.53 174.22C59.53 164.69 67.26 156.96 76.79 156.96C104.04 156.96 168.52 156.96 195.77 156.96Z" id="d2tkXwt89I"></path><path d="M373.38 407.13L383.38 407.13L383.37 253.13L373.37 253.13L373.38 407.13Z" id="aHnqxxlOl"></path><path d="M366.28 253.13L366.28 263.13L131.28 263.13L131.28 253.13L366.28 253.13Z" id="b1oLZ1UgDv"></path><path d="M153.14 258.13C153.14 267.43 145.58 274.99 136.28 274.99C126.97 274.99 119.42 267.43 119.42 258.13C119.42 248.82 126.97 241.27 136.28 241.27C145.58 241.27 153.14 248.82 153.14 258.13Z" id="k6ort8gYFj"></path><path d="M395.23 258.13C395.23 267.43 387.68 274.99 378.37 274.99C369.07 274.99 361.51 267.43 361.51 258.13C361.51 248.82 369.07 241.27 378.37 241.27C387.68 241.27 395.23 248.82 395.23 258.13Z" id="bcO7JSfMF"></path><path d="M153.14 413.62C153.14 422.92 145.58 430.48 136.28 430.48C126.97 430.48 119.42 422.92 119.42 413.62C119.42 404.31 126.97 396.76 136.28 396.76C145.58 396.76 153.14 404.31 153.14 413.62Z" id="bfEXhbCoG"></path><path d="M395.23 413.62C395.23 422.92 387.68 430.48 378.37 430.48C369.07 430.48 361.51 422.92 361.51 413.62C361.51 404.31 369.07 396.76 378.37 396.76C387.68 396.76 395.23 404.31 395.23 413.62Z" id="e13SMOBpc"></path><path d="M195.77 298.71C205.3 298.71 213.02 306.43 213.02 315.96C213.02 323.68 213.02 329.56 213.02 337.27C213.02 346.8 205.3 354.52 195.77 354.52C168.52 354.52 104.04 354.52 76.79 354.52C67.26 354.52 59.53 346.8 59.53 337.27C59.53 329.56 59.53 323.68 59.53 315.96C59.53 306.43 67.26 298.71 76.79 298.71C104.04 298.71 168.52 298.71 195.77 298.71Z" id="e1dMw8Hehd"></path><path d="M437.86 298.71C447.39 298.71 455.12 306.43 455.12 315.96C455.12 323.68 455.12 329.56 455.12 337.27C455.12 346.8 447.39 354.52 437.86 354.52C410.61 354.52 346.13 354.52 318.88 354.52C309.35 354.52 301.63 346.8 301.63 337.27C301.63 329.56 301.63 323.68 301.63 315.96C301.63 306.43 309.35 298.71 318.88 298.71C346.13 298.71 410.61 298.71 437.86 298.71Z" id="b15vY8KUxD"></path></defs><g><g><g><use xlink:href="#eqkBX8ePP" opacity="1" fill="#ffffff" fill-opacity="1"></use><g><use xlink:href="#eqkBX8ePP" opacity="1" fill-opacity="0" stroke="#ffffff" stroke-width="2" stroke-opacity="1"></use></g></g><g><g><use xlink:href="#b1i50r65pQ" opacity="1" fill="#000000" fill-opacity="1"></use><g><use xlink:href="#b1i50r65pQ" opacity="1" fill-opacity="0" stroke="#000000" stroke-width="1" stroke-opacity="1"></use></g></g><g><use xlink:href="#bppYmBZmm" opacity="1" fill="#000000" fill-opacity="1"></use><g><use xlink:href="#bppYmBZmm" opacity="1" fill-opacity="0" stroke="#000000" stroke-width="1" stroke-opacity="1"></use></g></g><g><use xlink:href="#d2tkXwt89I" opacity="1" fill="#ffffff" fill-opacity="1"></use><g><use xlink:href="#d2tkXwt89I" opacity="1" fill-opacity="0" stroke="#000000" stroke-width="10" stroke-opacity="1"></use></g></g><g><use xlink:href="#aHnqxxlOl" opacity="1" fill="#000000" fill-opacity="1"></use><g><use xlink:href="#aHnqxxlOl" opacity="1" fill-opacity="0" stroke="#000000" stroke-width="1" stroke-opacity="1"></use></g></g><g><use xlink:href="#b1oLZ1UgDv" opacity="1" fill="#000000" fill-opacity="1"></use><g><use xlink:href="#b1oLZ1UgDv" opacity="1" fill-opacity="0" stroke="#000000" stroke-width="1" stroke-opacity="1"></use></g></g><g><use xlink:href="#k6ort8gYFj" opacity="1" fill="#000000" fill-opacity="1"></use><g><use xlink:href="#k6ort8gYFj" opacity="1" fill-opacity="0" stroke="#000000" stroke-width="1" stroke-opacity="1"></use></g></g><g><use xlink:href="#bcO7JSfMF" opacity="1" fill="#000000" fill-opacity="1"></use><g><use xlink:href="#bcO7JSfMF" opacity="1" fill-opacity="0" stroke="#000000" stroke-width="1" stroke-opacity="1"></use></g></g><g><use xlink:href="#bfEXhbCoG" opacity="1" fill="#000000" fill-opacity="1"></use><g><use xlink:href="#bfEXhbCoG" opacity="1" fill-opacity="0" stroke="#000000" stroke-width="1" stroke-opacity="1"></use></g></g><g><use xlink:href="#e13SMOBpc" opacity="1" fill="#000000" fill-opacity="1"></use><g><use xlink:href="#e13SMOBpc" opacity="1" fill-opacity="0" stroke="#000000" stroke-width="1" stroke-opacity="1"></use></g></g><g><use xlink:href="#e1dMw8Hehd" opacity="1" fill="#ffffff" fill-opacity="1"></use><g><use xlink:href="#e1dMw8Hehd" opacity="1" fill-opacity="0" stroke="#000000" stroke-width="10" stroke-opacity="1"></use></g></g><g><use xlink:href="#b15vY8KUxD" opacity="1" fill="#ffffff" fill-opacity="1"></use><g><use xlink:href="#b15vY8KUxD" opacity="1" fill-opacity="0" stroke="#000000" stroke-width="10" stroke-opacity="1"></use></g></g></g></g></g></svg>